<?xml version="1.0" encoding="utf-8"?>
<!-- Generator: Adobe Illustrator 18.1.1, SVG Export Plug-In . SVG Version: 6.00 Build 0)  -->
<svg version="1.1" id="Layer_1" xmlns="http://www.w3.org/2000/svg" xmlns:xlink="http://www.w3.org/1999/xlink" x="0px" y="0px"
	 viewBox="74 242 443 103" enable-background="new 74 242 443 103" xml:space="preserve">
<g>
	<g>
		<g>
			<polygon fill="#FFFFFF" points="208.7,262.9 185.3,332.2 86.9,332.1 87,262.9 			"/>
			<polygon fill="#EB0029" stroke="#EB0029" stroke-width="1.061100e-02" stroke-linecap="square" stroke-miterlimit="10" points="
				207,268 208.7,262.9 140.7,262.9 140.7,268.2 207,268.2 			"/>
			<polygon fill="#EB0029" stroke="#EB0029" stroke-width="1.061100e-02" stroke-linecap="square" stroke-miterlimit="10" points="
				203.2,279 205,273.6 140.7,273.6 140.7,279.1 203.3,279.1 			"/>
			<polygon fill="#EB0029" points="140.8,289.9 199.6,289.9 201.4,284.3 140.8,284.3 			"/>
			<polygon fill="#EB0029" points="140.1,299.9 196.2,300 198,295.1 139.9,295.1 			"/>
			<polygon fill="#EB0029" points="194.3,305.5 87.1,305.5 87.1,310.9 192.6,310.9 			"/>
			<polygon fill="#EB0029" points="190.8,316.2 87.1,316.2 87.1,321.6 189,321.6 			"/>
			<polygon fill="#EB0029" points="187.2,326.7 87.1,326.7 87.1,332.1 185.4,332 			"/>
			<polygon fill="#3366CC" points="87.1,299.9 140.9,299.9 140.9,262.9 87.1,262.9 			"/>
			<polygon fill="#FFFFFF" stroke="#FFFFFF" stroke-width="1.061100e-02" stroke-linecap="square" stroke-miterlimit="10" points="
				90.1,265 91.5,265 91.9,263.7 92.3,265 93.7,265 92.6,265.9 93,267.2 91.9,266.4 90.8,267.2 91.2,265.9 			"/>
			<polygon fill="#FFFFFF" stroke="#FFFFFF" stroke-width="1.061100e-02" stroke-linecap="square" stroke-miterlimit="10" points="
				98.9,265 100.3,265 100.7,263.7 101.2,265 102.5,265 101.4,265.9 101.9,267.2 100.7,266.4 99.6,267.2 100,265.9 			"/>
			<polygon fill="#FFFFFF" stroke="#FFFFFF" stroke-width="1.061100e-02" stroke-linecap="square" stroke-miterlimit="10" points="
				107.7,265 109.1,265 109.5,263.7 109.9,265 111.3,265 110.2,265.9 110.7,267.2 109.5,266.4 108.4,267.2 108.8,265.9 			"/>
			<polygon fill="#FFFFFF" stroke="#FFFFFF" stroke-width="1.061100e-02" stroke-linecap="square" stroke-miterlimit="10" points="
				116.5,265 117.9,265 118.4,263.7 118.8,265 120.2,265 119,265.9 119.5,267.2 118.4,266.4 117.3,267.2 117.7,265.9 			"/>
			<polygon fill="#FFFFFF" stroke="#FFFFFF" stroke-width="1.061100e-02" stroke-linecap="square" stroke-miterlimit="10" points="
				125.4,265 126.8,265 127.2,263.7 127.6,265 129.1,265 127.9,265.9 128.3,267.2 127.2,266.4 126.1,267.2 126.5,265.9 			"/>
			<polygon fill="#FFFFFF" stroke="#FFFFFF" stroke-width="1.061100e-02" stroke-linecap="square" stroke-miterlimit="10" points="
				134.3,265 135.7,265 136.2,263.7 136.6,265 138,265 136.9,265.9 137.3,267.2 136.2,266.4 135.1,267.2 135.5,265.9 			"/>
			<polygon fill="#FFFFFF" stroke="#FFFFFF" stroke-width="1.061100e-02" stroke-linecap="square" stroke-miterlimit="10" points="
				134.3,273.1 135.7,273.1 136.2,271.8 136.6,273.1 138,273.1 136.9,273.9 137.3,275.3 136.2,274.5 135.1,275.3 135.5,273.9 			"/>
			<polygon fill="#FFFFFF" stroke="#FFFFFF" stroke-width="1.061100e-02" stroke-linecap="square" stroke-miterlimit="10" points="
				125.4,273.1 126.8,273.1 127.2,271.8 127.6,273.1 129.1,273.1 127.9,273.9 128.3,275.3 127.2,274.5 126.1,275.3 126.5,273.9 			
				"/>
			<polygon fill="#FFFFFF" stroke="#FFFFFF" stroke-width="1.061100e-02" stroke-linecap="square" stroke-miterlimit="10" points="
				116.5,273.1 117.9,273.1 118.4,271.8 118.8,273.1 120.2,273.1 119,273.9 119.5,275.3 118.4,274.5 117.3,275.3 117.7,273.9 			"/>
			<polygon fill="#FFFFFF" stroke="#FFFFFF" stroke-width="1.061100e-02" stroke-linecap="square" stroke-miterlimit="10" points="
				107.7,273.1 109.1,273.1 109.5,271.8 109.9,273.1 111.3,273.1 110.2,273.9 110.7,275.3 109.5,274.5 108.4,275.3 108.8,273.9 			
				"/>
			<polygon fill="#FFFFFF" stroke="#FFFFFF" stroke-width="1.061100e-02" stroke-linecap="square" stroke-miterlimit="10" points="
				98.9,273.1 100.3,273.1 100.7,271.8 101.2,273.1 102.5,273.1 101.4,273.9 101.9,275.3 100.7,274.5 99.6,275.3 100,273.9 			"/>
			<polygon fill="#FFFFFF" stroke="#FFFFFF" stroke-width="1.061100e-02" stroke-linecap="square" stroke-miterlimit="10" points="
				90.1,273.1 91.5,273.1 91.9,271.8 92.3,273.1 93.7,273.1 92.6,273.9 93,275.3 91.9,274.5 90.8,275.3 91.2,273.9 			"/>
			<polygon fill="#FFFFFF" stroke="#FFFFFF" stroke-width="1.061100e-02" stroke-linecap="square" stroke-miterlimit="10" points="
				90.1,281 91.5,281 91.9,279.7 92.3,281 93.7,281 92.6,281.9 93,283.2 91.9,282.4 90.8,283.2 91.2,281.9 			"/>
			<polygon fill="#FFFFFF" stroke="#FFFFFF" stroke-width="1.061100e-02" stroke-linecap="square" stroke-miterlimit="10" points="
				90.1,289.1 91.5,289.1 91.9,287.7 92.3,289.1 93.7,289.1 92.6,290 93,291.3 91.9,290.4 90.8,291.3 91.2,290 			"/>
			<polygon fill="#FFFFFF" stroke="#FFFFFF" stroke-width="1.061100e-02" stroke-linecap="square" stroke-miterlimit="10" points="
				90.1,297 91.5,297 91.9,295.7 92.3,297 93.7,297 92.6,297.9 93,299.2 91.9,298.3 90.8,299.2 91.2,297.9 			"/>
			<polygon fill="#FFFFFF" stroke="#FFFFFF" stroke-width="1.061100e-02" stroke-linecap="square" stroke-miterlimit="10" points="
				98.9,297 100.3,297 100.7,295.7 101.2,297 102.5,297 101.4,297.9 101.9,299.2 100.7,298.3 99.6,299.2 100,297.9 			"/>
			<polygon fill="#FFFFFF" stroke="#FFFFFF" stroke-width="1.061100e-02" stroke-linecap="square" stroke-miterlimit="10" points="
				107.7,297 109.1,297 109.5,295.7 109.9,297 111.3,297 110.2,297.9 110.7,299.2 109.5,298.3 108.4,299.2 108.8,297.9 			"/>
			<polygon fill="#FFFFFF" stroke="#FFFFFF" stroke-width="1.061100e-02" stroke-linecap="square" stroke-miterlimit="10" points="
				116.5,297 117.9,297 118.4,295.7 118.8,297 120.2,297 119,297.9 119.5,299.2 118.4,298.3 117.3,299.2 117.7,297.9 			"/>
			<polygon fill="#FFFFFF" stroke="#FFFFFF" stroke-width="1.061100e-02" stroke-linecap="square" stroke-miterlimit="10" points="
				125.4,297 126.8,297 127.2,295.7 127.6,297 129.1,297 127.9,297.9 128.3,299.2 127.2,298.3 126.1,299.2 126.5,297.9 			"/>
			<polygon fill="#FFFFFF" stroke="#FFFFFF" stroke-width="1.061100e-02" stroke-linecap="square" stroke-miterlimit="10" points="
				134.3,297 135.7,297 136.2,295.7 136.6,297 138,297 136.9,297.9 137.3,299.2 136.2,298.3 135.1,299.2 135.5,297.9 			"/>
			<polygon fill="#FFFFFF" stroke="#FFFFFF" stroke-width="1.061100e-02" stroke-linecap="square" stroke-miterlimit="10" points="
				134.3,289.1 135.7,289.1 136.2,287.7 136.6,289.1 138,289.1 136.9,290 137.3,291.3 136.2,290.4 135.1,291.3 135.5,290 			"/>
			<polygon fill="#FFFFFF" stroke="#FFFFFF" stroke-width="1.061100e-02" stroke-linecap="square" stroke-miterlimit="10" points="
				125.4,289.1 126.8,289.1 127.2,287.7 127.6,289.1 129.1,289.1 127.9,290 128.3,291.3 127.2,290.4 126.1,291.3 126.5,290 			"/>
			<polygon fill="#FFFFFF" stroke="#FFFFFF" stroke-width="1.061100e-02" stroke-linecap="square" stroke-miterlimit="10" points="
				116.5,289.1 117.9,289.1 118.4,287.7 118.8,289.1 120.2,289.1 119,290 119.5,291.3 118.4,290.4 117.3,291.3 117.7,290 			"/>
			<polygon fill="#FFFFFF" stroke="#FFFFFF" stroke-width="1.061100e-02" stroke-linecap="square" stroke-miterlimit="10" points="
				107.7,289.1 109.1,289.1 109.5,287.7 109.9,289.1 111.3,289.1 110.2,290 110.7,291.3 109.5,290.4 108.4,291.3 108.8,290 			"/>
			<polygon fill="#FFFFFF" stroke="#FFFFFF" stroke-width="1.061100e-02" stroke-linecap="square" stroke-miterlimit="10" points="
				98.9,289.1 100.3,289.1 100.7,287.7 101.2,289.1 102.5,289.1 101.4,290 101.9,291.3 100.7,290.4 99.6,291.3 100,290 			"/>
			<polygon fill="#FFFFFF" stroke="#FFFFFF" stroke-width="1.061100e-02" stroke-linecap="square" stroke-miterlimit="10" points="
				94.4,293 95.8,293 96.2,291.6 96.6,293 98,293 96.9,293.8 97.3,295.1 96.2,294.3 95.1,295.1 95.6,293.8 			"/>
			<polygon fill="#FFFFFF" stroke="#FFFFFF" stroke-width="1.061100e-02" stroke-linecap="square" stroke-miterlimit="10" points="
				103.2,293 104.7,293 105.1,291.6 105.5,293 106.9,293 105.8,293.8 106.2,295.1 105.1,294.3 103.9,295.1 104.4,293.8 			"/>
			<polygon fill="#FFFFFF" stroke="#FFFFFF" stroke-width="1.061100e-02" stroke-linecap="square" stroke-miterlimit="10" points="
				112.1,293 113.5,293 113.9,291.6 114.3,293 115.7,293 114.6,293.8 115,295.1 113.9,294.3 112.8,295.1 113.2,293.8 			"/>
			<polygon fill="#FFFFFF" stroke="#FFFFFF" stroke-width="1.061100e-02" stroke-linecap="square" stroke-miterlimit="10" points="
				120.9,293 122.3,293 122.7,291.6 123.2,293 124.6,293 123.4,293.8 123.9,295.1 122.7,294.3 121.6,295.1 122,293.8 			"/>
			<polygon fill="#FFFFFF" stroke="#FFFFFF" stroke-width="1.061100e-02" stroke-linecap="square" stroke-miterlimit="10" points="
				130,293 131.4,293 131.8,291.6 132.2,293 133.6,293 132.5,293.8 133,295.1 131.8,294.3 130.7,295.1 131.2,293.8 			"/>
			<polygon fill="#FFFFFF" stroke="#FFFFFF" stroke-width="1.061100e-02" stroke-linecap="square" stroke-miterlimit="10" points="
				130,285.1 131.4,285.1 131.8,283.7 132.2,285.1 133.6,285.1 132.5,285.9 133,287.3 131.8,286.4 130.7,287.3 131.2,285.9 			"/>
			<polygon fill="#FFFFFF" stroke="#FFFFFF" stroke-width="1.061100e-02" stroke-linecap="square" stroke-miterlimit="10" points="
				120.9,285.1 122.3,285.1 122.7,283.7 123.2,285.1 124.6,285.1 123.4,285.9 123.9,287.3 122.7,286.4 121.6,287.3 122,285.9 			"/>
			<polygon fill="#FFFFFF" stroke="#FFFFFF" stroke-width="1.061100e-02" stroke-linecap="square" stroke-miterlimit="10" points="
				112.1,285.1 113.5,285.1 113.9,283.7 114.3,285.1 115.7,285.1 114.6,285.9 115,287.3 113.9,286.4 112.8,287.3 113.2,285.9 			"/>
			<polygon fill="#FFFFFF" stroke="#FFFFFF" stroke-width="1.061100e-02" stroke-linecap="square" stroke-miterlimit="10" points="
				103.2,285.1 104.7,285.1 105.1,283.7 105.5,285.1 106.9,285.1 105.8,285.9 106.2,287.3 105.1,286.4 103.9,287.3 104.4,285.9 			
				"/>
			<polygon fill="#FFFFFF" stroke="#FFFFFF" stroke-width="1.061100e-02" stroke-linecap="square" stroke-miterlimit="10" points="
				94.4,285.1 95.8,285.1 96.2,283.7 96.6,285.1 98,285.1 96.9,285.9 97.3,287.3 96.2,286.4 95.1,287.3 95.6,285.9 			"/>
			<polygon fill="#FFFFFF" stroke="#FFFFFF" stroke-width="1.061100e-02" stroke-linecap="square" stroke-miterlimit="10" points="
				98.9,281 100.3,281 100.7,279.7 101.2,281 102.5,281 101.4,281.9 101.9,283.2 100.7,282.4 99.6,283.2 100,281.9 			"/>
			<polygon fill="#FFFFFF" stroke="#FFFFFF" stroke-width="1.061100e-02" stroke-linecap="square" stroke-miterlimit="10" points="
				107.7,281 109.1,281 109.5,279.7 109.9,281 111.3,281 110.2,281.9 110.7,283.2 109.5,282.4 108.4,283.2 108.8,281.9 			"/>
			<polygon fill="#FFFFFF" stroke="#FFFFFF" stroke-width="1.061100e-02" stroke-linecap="square" stroke-miterlimit="10" points="
				116.5,281 117.9,281 118.4,279.7 118.8,281 120.2,281 119,281.9 119.5,283.2 118.4,282.4 117.3,283.2 117.7,281.9 			"/>
			<polygon fill="#FFFFFF" stroke="#FFFFFF" stroke-width="1.061100e-02" stroke-linecap="square" stroke-miterlimit="10" points="
				125.4,281 126.8,281 127.2,279.7 127.6,281 129.1,281 127.9,281.9 128.3,283.2 127.2,282.4 126.1,283.2 126.5,281.9 			"/>
			<polygon fill="#FFFFFF" stroke="#FFFFFF" stroke-width="1.061100e-02" stroke-linecap="square" stroke-miterlimit="10" points="
				134.3,281 135.7,281 136.2,279.7 136.6,281 138,281 136.9,281.9 137.3,283.2 136.2,282.4 135.1,283.2 135.5,281.9 			"/>
			<polygon fill="#FFFFFF" stroke="#FFFFFF" stroke-width="1.061100e-02" stroke-linecap="square" stroke-miterlimit="10" points="
				130,277 131.4,277 131.8,275.6 132.2,277 133.6,277 132.5,277.8 133,279.1 131.8,278.3 130.7,279.1 131.2,277.8 			"/>
			<polygon fill="#FFFFFF" stroke="#FFFFFF" stroke-width="1.061100e-02" stroke-linecap="square" stroke-miterlimit="10" points="
				120.9,277 122.3,277 122.7,275.6 123.2,277 124.6,277 123.4,277.8 123.9,279.1 122.7,278.3 121.6,279.1 122,277.8 			"/>
			<polygon fill="#FFFFFF" stroke="#FFFFFF" stroke-width="1.061100e-02" stroke-linecap="square" stroke-miterlimit="10" points="
				112.1,277 113.5,277 113.9,275.6 114.3,277 115.7,277 114.6,277.8 115,279.1 113.9,278.3 112.8,279.1 113.2,277.8 			"/>
			<polygon fill="#FFFFFF" stroke="#FFFFFF" stroke-width="1.061100e-02" stroke-linecap="square" stroke-miterlimit="10" points="
				103.2,277 104.7,277 105.1,275.6 105.5,277 106.9,277 105.8,277.8 106.2,279.1 105.1,278.3 103.9,279.1 104.4,277.8 			"/>
			<polygon fill="#FFFFFF" stroke="#FFFFFF" stroke-width="1.061100e-02" stroke-linecap="square" stroke-miterlimit="10" points="
				94.4,277 95.8,277 96.2,275.6 96.6,277 98,277 96.9,277.8 97.3,279.1 96.2,278.3 95.1,279.1 95.6,277.8 			"/>
			<polygon fill="#FFFFFF" stroke="#FFFFFF" stroke-width="1.061100e-02" stroke-linecap="square" stroke-miterlimit="10" points="
				94.4,269.1 95.8,269.1 96.2,267.7 96.6,269.1 98,269.1 96.9,269.9 97.3,271.2 96.2,270.4 95.1,271.2 95.6,269.9 			"/>
			<polygon fill="#FFFFFF" stroke="#FFFFFF" stroke-width="1.061100e-02" stroke-linecap="square" stroke-miterlimit="10" points="
				103.2,269.1 104.7,269.1 105.1,267.7 105.5,269.1 106.9,269.1 105.8,269.9 106.2,271.2 105.1,270.4 103.9,271.2 104.4,269.9 			
				"/>
			<polygon fill="#FFFFFF" stroke="#FFFFFF" stroke-width="1.061100e-02" stroke-linecap="square" stroke-miterlimit="10" points="
				112.1,269.1 113.5,269.1 113.9,267.7 114.3,269.1 115.7,269.1 114.6,269.9 115,271.2 113.9,270.4 112.8,271.2 113.2,269.9 			"/>
			<polygon fill="#FFFFFF" stroke="#FFFFFF" stroke-width="1.061100e-02" stroke-linecap="square" stroke-miterlimit="10" points="
				120.9,269.1 122.3,269.1 122.7,267.7 123.2,269.1 124.6,269.1 123.4,269.9 123.9,271.2 122.7,270.4 121.6,271.2 122,269.9 			"/>
			<polygon fill="#FFFFFF" stroke="#FFFFFF" stroke-width="1.061100e-02" stroke-linecap="square" stroke-miterlimit="10" points="
				130,269.1 131.4,269.1 131.8,267.7 132.2,269.1 133.6,269.1 132.5,269.9 133,271.2 131.8,270.4 130.7,271.2 131.2,269.9 			"/>
			<polyline fill="none" points="208.6,262.9 185.3,332.1 87.1,332.1 87.1,262.9 			"/>
		</g>
		<g>
			<path fill="#3366CC" d="M495.6,270.9c0-4,3.2-6.9,7-6.9s7,2.9,7,6.9s-3.2,6.9-7,6.9C498.8,277.8,495.6,274.9,495.6,270.9z
				 M502.6,276.7c3.1,0,5.6-2.4,5.6-5.8c0-3.3-2.5-5.7-5.6-5.7c-3.2,0-5.6,2.5-5.6,5.7C497,274.2,499.4,276.7,502.6,276.7z
				 M501.1,274.9h-1.2V267h3c1.9,0,2.8,0.7,2.8,2.3c0,1.4-0.9,2-2.1,2.2l2.3,3.5h-1.3l-2.1-3.4h-1.4L501.1,274.9L501.1,274.9z
				 M502.6,270.4c1,0,1.9-0.1,1.9-1.3c0-1-0.9-1.2-1.7-1.2h-1.6v2.5H502.6z"/>
			<path fill="#3366CC" d="M223.6,332.3l3.2-11.4l18.8-0.1l3.2,11.5h33.8l-23.4-69.5h-45.9l-24,69.5H223.6z M236.3,274.4l7.1,34.1
				h-14.5L236.3,274.4z"/>
			<path fill="#3366CC" d="M329.2,262.6c0,0,26.5-1,26.3,16c-0.2,16.4-22.1,13.4-22.1,17.3c0,2.8,23.9,0.8,23.9,18.5
				c0,18-26.1,18-26.1,18h-44.8l-11.8-35.7v-34.1L329.2,262.6z M307.4,276v14h7.9c0,0,7-0.6,7-7.3c0-6.7-7.1-6.8-7.1-6.8L307.4,276z
				 M307.4,303.2v15.2h7.9c0,0,7.8-0.3,7.8-8c0-8-7.8-7.2-7.8-7.2H307.4z"/>
			<path fill="#3366CC" d="M385.1,274.8c0,0,7.1,0,7.1,7.5c0,7.7-7,7.7-7,7.7h-7.9v-15.2H385.1z M345.1,262.9
				c0,0,15.1-0.1,15.1,16.7c0,16.9-16.8,13.3-16.8,16.5c0,2.4,18.5-0.2,18.5,17.8c0,15.3-16,18.5-16,18.5h31.2l0.1-29.8h7.2
				c0,0,4,0.2,5.5,2.3c1.5,2.1,1.9,3,2,4.9c0,1.8,0,18.2,0,18.2s-0.5,0.8,1.5,2.8s5.2,1.6,5.2,1.6h30.5c0,0-2.6-1.4-3-3.5
				c-0.5-2.8-0.5-19.2-0.5-19.2s0.1-2.5-2.2-5.1c-2.8-3.2-10.7-4.9-12.1-5.3c-3.6-1-3.7-1.6-3.7-2.4c0-1.7,2.6-1.5,7-3
				c4.8-1.6,11.4-3.7,11.4-13.2c0-17.3-22.9-17.6-22.9-17.6L345.1,262.9z"/>
			<path fill="#3366CC" d="M454.8,260.3c8.9,0,24.3,0.3,31.8,5.8c7.5,5.4,10.9,11.5,10.9,27.7s-1.5,26.9-10.7,33.4
				c-9.2,6.6-29.4,5.9-31.8,5.9s-14.4-0.8-15.6-0.9s-6.2-0.8-7.9-2.7c-1.6-1.9-1.2-6-1.2-6s-0.3-11.7-0.2-15.9
				c0-2.4-1.4-4.9-2.3-5.7c-5.1-4.5-11.9-3.5-11.9-5.1c0-2,14.3,0.8,14.8-16.7c0.3-10.1-6.7-13.8-6.7-13.8S429.6,260.3,454.8,260.3z
				 M447.5,278.8v36.3c0,0,0,4.6,7.7,4.6c7.8,0,8.1-4.5,8.1-4.5s0.1-30.2,0-36.3c-0.1-5.6-8.2-5.5-8.2-5.5
				C447.7,273.5,447.5,278.8,447.5,278.8z"/>
		</g>
	</g>
</g>
</svg>
